<svg id="Layer_1" data-name="Layer 1" xmlns="http://www.w3.org/2000/svg" viewBox="0 0 642 513"><defs><style>.cls-1{fill:#001555;stroke:#00416a;stroke-miterlimit:10;}.cls-2{fill:#3e436d;}.cls-3{fill:#32314b;}.cls-4{fill:#fff;}.cls-5{fill:#27273d;}.cls-6{fill:#db1b1b;}.cls-7{fill:#bc1d1d;}.cls-8{fill:#e2e0e0;}.cls-9{fill:#e88032;}.cls-10{fill:#4f4f74;}.cls-11{fill:#f6d372;}.cls-12{fill:#f6c752;}.cls-13{fill:#f7bb38;}.cls-14{fill:#4acc97;}.cls-15{fill:#38c487;}.cls-16{fill:#00b564;}.cls-17{fill:#7cc8fb;}.cls-18{fill:#41c0e3;}.cls-19{fill:#3586cb;}</style></defs><rect class="cls-1" x="0.5" y="0.5" width="641" height="512"/><g id="Icons"><rect class="cls-2" x="109.42" y="120.81" width="417.16" height="300.27" rx="21.16"/><rect class="cls-3" x="130.55" y="120.81" width="374.9" height="289.09" rx="19.68"/><path class="cls-4" d="M426.17,101.91H85.83a9.62,9.62,0,0,0-9.62,9.62h0v262a9.62,9.62,0,0,0,9.62,9.62H426.17a9.62,9.62,0,0,0,9.62-9.62v-262A9.62,9.62,0,0,0,426.17,101.91Z" transform="translate(62)"/><path class="cls-5" d="M257.18,421.08h-2.36a16.56,16.56,0,0,1-16.4-14.27l-3.32-23.7h41.8l-3.32,23.7A16.56,16.56,0,0,1,257.18,421.08Z" transform="translate(62)"/><path class="cls-6" d="M165,383.11v58.44a5.58,5.58,0,0,1-7.93,5.06l-12.77-5.95a12.23,12.23,0,0,0-10.31,0l-12.77,5.95a5.58,5.58,0,0,1-7.93-5.06V383.11Z" transform="translate(62)"/><rect class="cls-7" x="175.28" y="383.11" width="51.72" height="18.98"/><rect class="cls-8" x="311.7" y="101.91" width="12.6" height="281.2"/><path class="cls-9" d="M102.63,333.12H226.48a7.31,7.31,0,0,1,7.31,7.31h0a7.31,7.31,0,0,1-7.31,7.31H102.63a7.31,7.31,0,0,1-7.31-7.31h0A7.31,7.31,0,0,1,102.63,333.12Z" transform="translate(62)"/><path class="cls-9" d="M102.63,357.57H226.48a7.31,7.31,0,0,1,7.31,7.31h0a7.31,7.31,0,0,1-7.31,7.31H102.63a7.31,7.31,0,0,1-7.31-7.31h0A7.31,7.31,0,0,1,102.63,357.57Z" transform="translate(62)"/><path class="cls-9" d="M283,333.12H406.85a7.31,7.31,0,0,1,7.31,7.31h0a7.31,7.31,0,0,1-7.31,7.31H283a7.31,7.31,0,0,1-7.31-7.31h0A7.31,7.31,0,0,1,283,333.12Z" transform="translate(62)"/><path class="cls-9" d="M283,357.57H406.85a7.31,7.31,0,0,1,7.31,7.31h0a7.31,7.31,0,0,1-7.31,7.31H283a7.31,7.31,0,0,1-7.31-7.31h0A7.31,7.31,0,0,1,283,357.57Z" transform="translate(62)"/><rect class="cls-5" x="225.63" y="90.16" width="184.74" height="181.39"/><rect class="cls-10" x="207.73" y="64.86" width="220.54" height="72.14" rx="10.4"/><path class="cls-2" d="M366.27,122.53v4.07a10.4,10.4,0,0,1-10.4,10.4H156.13a10.4,10.4,0,0,1-10.4-10.4V75.26a10.4,10.4,0,0,1,10.4-10.4h6.39v47.27a10.4,10.4,0,0,0,10.4,10.4H366.27Z" transform="translate(62)"/><rect class="cls-11" x="224.21" y="92.06" width="17.74" height="17.74" rx="3.22"/><rect class="cls-12" x="247.34" y="92.06" width="17.74" height="17.74" rx="3.22"/><rect class="cls-13" x="270.47" y="92.06" width="17.74" height="17.74" rx="3.22"/><rect class="cls-3" x="314.83" y="73.05" width="94.11" height="13.38" rx="4.76"/><rect class="cls-3" x="314.83" y="94.24" width="94.11" height="13.38" rx="4.76"/><rect class="cls-3" x="314.83" y="115.43" width="94.11" height="13.38" rx="4.76"/><rect class="cls-10" x="207.73" y="146.83" width="220.54" height="72.14" rx="10.4"/><path class="cls-2" d="M366.27,204.5v4.06A10.41,10.41,0,0,1,355.89,219H156.13a10.41,10.41,0,0,1-10.4-10.41V157.23a10.4,10.4,0,0,1,10.4-10.4h6.39v47.26a10.41,10.41,0,0,0,10.41,10.41H366.27Z" transform="translate(62)"/><rect class="cls-14" x="224.21" y="174.03" width="17.74" height="17.74" rx="3.22"/><rect class="cls-15" x="247.34" y="174.03" width="17.74" height="17.74" rx="3.22"/><rect class="cls-16" x="270.47" y="174.03" width="17.74" height="17.74" rx="3.22"/><rect class="cls-3" x="314.83" y="155.01" width="94.11" height="13.38" rx="4.76"/><rect class="cls-3" x="314.83" y="176.21" width="94.11" height="13.38" rx="4.76"/><rect class="cls-3" x="314.83" y="197.4" width="94.11" height="13.38" rx="4.76"/><rect class="cls-10" x="207.73" y="228.79" width="220.54" height="72.14" rx="10.4"/><path class="cls-2" d="M366.27,286.46v4.06a10.41,10.41,0,0,1-10.4,10.41H156.13a10.41,10.41,0,0,1-10.4-10.41V239.19a10.4,10.4,0,0,1,10.4-10.4h6.39v47.27a10.41,10.41,0,0,0,10.41,10.4Z" transform="translate(62)"/><rect class="cls-17" x="224.21" y="255.99" width="17.74" height="17.74" rx="3.22"/><rect class="cls-18" x="247.34" y="255.99" width="17.74" height="17.74" rx="3.22"/><rect class="cls-19" x="270.47" y="255.99" width="17.74" height="17.74" rx="3.22"/><rect class="cls-3" x="314.83" y="236.98" width="94.11" height="13.38" rx="4.76"/><rect class="cls-3" x="314.83" y="258.17" width="94.11" height="13.38" rx="4.76"/><rect class="cls-3" x="314.83" y="279.36" width="94.11" height="13.38" rx="4.76"/></g></svg>